<svg xmlns="http://www.w3.org/2000/svg" width="210mm" height="210mm"
      viewBox="0 0 21000 21000" shape-rendering="geometricPrecision"
      text-rendering="geometricPrecision" image-rendering="optimizeQuality"
      fill-rule="evenodd" clip-rule="evenodd">
    <defs>

    </defs>
    <g id="Слой_x0020_1">
        <path class="gray0"
              d="M15929.46 10159.46c-206.3-206.3-540.79-206.3-746.95 0l-4525.44 4525.44c-206.3 206.16-206.3 540.65 0 746.95l3394.08 3394.08c206.3 206.3 540.65 206.3 746.95 0l4525.44-4525.58c206.3-206.16 206.3-540.51 0-746.81l-3394.08-3394.08zm0 0z"></path>
        <path class="gray0"
              d="M19323.54 13553.54l-3394.08-3394.08c-206.3-206.3-540.79-206.3-746.95 0l-2262.72 2262.72 4141.03 4141.03c1131.36-1131.36 2262.72-2262.86 2262.72-2262.86 206.3-206.16 206.3-540.51 0-746.81zm0 0zM8394.07 4118.12l1131.36 1131.36c160.78 160.64 406.41 200.53 609.69 98.89l2262.72-1131.36c344.39-171.37 375.47-607.9 137.53-845.84l-1131.5-1131.36c-160.64-160.78-406.41-200.53-609.55-99.02L8531.46 3272.15c-313.44 156.79-398.85 584.52-137.4 845.98l.01-.01zm0 0z"></path>
        <path class="gray3"
              d="M6131.49 18825.94c206.3 206.3 540.79 206.16 746.95 0l3239.49-3239.49 912.68-.01c870.59 0 1689.06-339.02 2304.67-954.63l3584.43-3584.43c595.39-595.39 595.66-1563.91.83-2159.57-.69-.83-1.38-1.38-2.06-2.06-147.16-147.02-319.08-260.35-506.27-336.13 162.29-410.54 196.67-1104.95-340.95-1642.58a63.405 63.405 0 01-4.26-4.26c-146.47-145.51-317.43-257.74-503.24-332.97 162.15-410.4 196.54-1104.68-340.81-1642.3-.28-.41-.55-.69-.83-.96-147.44-147.3-319.49-260.9-506.95-336.68 162.29-410.54 196.54-1104.95-340.95-1642.58l-.28-.28-.41-.41c-595.66-595.66-1564.87-595.66-2160.53 0L1606.05 13553.55c-206.3 206.3-206.3 540.65 0 746.81l4525.44 4525.58zm0 0z"
              fill-rule="nonzero"></path>
        <g id="_2787459007568">
            <path class="gray0"
                  d="M10976.83 6807.88c442.17-442.17 442.17-1158.87 0-1601.04L8719.61 2949.62c-442.04-442.04-1158.87-442.04-1600.9 0-442.04 442.17-442.04 1158.87 0 1601.04l2257.22 2257.22c442.04 442.04 1158.87 442.04 1600.9 0zm0 0z"></path>
            <path class="gray0"
                  d="M9375.93 8408.79c442.04-442.04 442.04-1158.87 0-1600.9L7401.62 4833.44c-442.17-442.04-1158.87-442.04-1601.04 0-442.04 442.17-442.04 1158.87 0 1601.04l1974.45 1974.31c442.04 442.04 1158.87 442.04 1600.9 0zm0 0z"></path>
            <path class="gray0"
                  d="M7775.03 10009.69c442.04-442.04 442.04-1158.87 0-1600.9L6366.26 7000.02c-442.04-442.04-1158.87-442.04-1600.9 0-442.04 442.17-442.04 1158.87 0 1601.04l1408.63 1408.63c442.17 442.17 1158.87 442.17 1601.04 0zm0 0z"></path>
            <path class="gray0"
                  d="M6173.99 11610.73c442.17-442.17 442.17-1158.87 0-1601.04l-842.95-842.95c-442.04-442.04-1158.87-442.04-1600.9 0-442.17 442.04-442.17 1158.87 0 1600.9l842.95 843.09c442.04 442.04 1158.87 442.04 1600.9 0zm0 0z"></path>
        </g>
        <path class="gray3"
              d="M16920.53 8887.82c-.69-.83-1.38-1.38-2.06-2.06-147.16-147.02-319.08-260.35-506.27-336.13 162.29-410.54 196.67-1104.95-340.95-1642.58-1.51-1.38-2.89-2.89-4.26-4.26-146.47-145.51-317.43-257.88-503.24-333.11 147.57-373.27 189.11-981.17-208.78-1492.66L3868.76 16563.23l2262.72 2262.72c206.3 206.3 540.79 206.3 746.95 0l3239.49-3239.49 912.69-.02c870.46 0 1689.06-339.02 2304.67-954.63l3584.43-3584.43c595.39-595.39 595.53-1563.91.83-2159.57l-.01.01zm0 0z"
              fill-rule="nonzero"></path>
    </g>
</svg>