
    <svg xmlns="http://www.w3.org/2000/svg" viewBox="0 0 153500 153500" shape-rendering="geometricPrecision"
        text-rendering="geometricPrecision" image-rendering="optimizeQuality" fill-rule="evenodd" clip-rule="evenodd">
        <defs>
            <style>
             .ftizer5 {
                fill: #5db33a
            }

             .ftizer4 {
                fill: #82cd64
            }

             .ftizer12 {
                fill: #b0805f
            }

             .ftizer1 {
                fill: #bce8f1
            }

             .ftizer11 {
                fill: #cdcdcd
            }

             .ftizer6 {
                fill: #d19a75
            }

             .ftizer3 {
                fill: #e5554e
            }

             .ftizer10 {
                fill: #e6e6e6
            }

             .ftizer2 {
                fill: #f76c57
            }

             .ftizer9 {
                fill: #ffd508
            }

             .ftizer8 {
                fill: #ffe046
            }

             .ftizer7 {
                fill: #fff2b2
            }
            </style>
        </defs>
        <g id="Слой_x0020_1">
            <path
                d="M2432 121737l871 2612c835 2508 3182 4198 5825 4198l10225 1c785 0 1482 502 1729 1246l1256 3766c836 2507 3182 4199 5825 4199h101062c2643 0 4990-1692 5826-4199l1255-3766c248-744 945-1246 1730-1246h7155c2643 0 4989-1691 5824-4198l872-2613c393-1180-486-2399-1730-2399l-145996-1c-1244 0-2123 1220-1729 2400zm0 0z"
                fill="#def4f8" />
            <path class="ftizer1"
                d="M135051 133560l1255-3765c248-745 945-1246 1730-1246h-5242c-1321 0-2495 844-2912 2098l-35 101c-418 1253-1590 2099-2912 2099H22100l238 714c418 1253 1214 2303 2235 3039 255 184 525 348 806 492 282 143 574 265 876 363 605 199 1247 304 1908 304h101062c2643 0 4990-1691 5826-4199zm0 0z" />
            <path class="ftizer2"
                d="M59045 67128c0 7631-6186 13816-13816 13816-7631 0-13817-6185-13817-13816 0-7630 6186-19956 13817-19956 7630 0 13816 12326 13816 19956zm0 0z" />
            <path class="ftizer3"
                d="M52236 50687c1581 3376 2510 7038 2510 9993 0 7631-6185 13817-13815 13817-3388 0-6489-1221-8892-3245 1755 5616 6997 9692 13190 9692 7630 0 13816-6185 13816-13815 0-5074-2734-12220-6809-16442zm0 0z" />
            <path class="ftizer4"
                d="M45229 89851c-8744 0-16819-5065-20676-12785-475-951-18-2106 972-2497l6795-2681c2064 5235 7252 8753 12909 8753 5656 0 10844-3518 12909-8753l6796 2681c989 391 1445 1546 970 2497-3856 7720-11932 12785-20675 12785zm0 0z" />
            <path class="ftizer5"
                d="M62863 73753c-3840 7770-11941 12875-20719 12875-5628 0-10977-2100-15104-5654 4313 5475 11025 8877 18189 8877 8743 0 16819-5066 20675-12786 475-951 18-2105-970-2496l-2071-816zm0 0z" />
            <path class="ftizer6"
                d="M67967 119337H22491c-1008 0-1824-816-1824-1823v-14167c0-1343 1089-2431 2432-2431h44260c1343 0 2432 1088 2432 2431v14167c0 1007-817 1823-1824 1823zm0 0z" />
            <path class="ftizer5"
                d="M27679 73712c3839 7770 11941 12875 20718 12875 5629 0 10978-2100 15105-5654-4313 5474-11025 8877-18188 8877-8745 0-16820-5066-20677-12786-475-951-17-2106 972-2496l2070-816zm0 0z" />
            <path class="ftizer7"
                d="M26808 90478v8595c0 1019 824 1843 1842 1843h921c16472 0 5809 459 15434 6 1582-75 15856-6 15881-6h922c1017 0 1841-824 1841-1842v-8596c0-1018-824-1843-1841-1843H28650c-1018 0-1842 825-1842 1843z" />
            <path class="ftizer8"
                d="M45229 17506v12977h17853c861 0 1449-734 1129-1409l-2223-4697c-116-246-116-520 0-764l2223-4698c320-675-268-1409-1129-1409H45229zm0 0z" />
            <path class="ftizer9"
                d="M63083 17506h-2641l-2799 5916c-174 368-174 777 0 1145l2799 5916h2641c860 0 1448-734 1128-1410l-2223-4697c-115-246-115-519 0-764l2223-4697c320-675-268-1409-1128-1409zm0 0z" />
            <path class="ftizer10"
                d="M50448 11012c0 2437-2337 4412-5219 4412s-5220-1975-5220-4412 2337-4413 5220-4413c2882 0 5219 1976 5219 4413zm0 0z" />
            <path class="ftizer11"
                d="M47271 6950c266 531 414 1114 414 1725 0 2437-2337 4413-5220 4413-724 0-1413-125-2041-350 794 1579 2646 2686 4805 2686 2882 0 5219-1976 5219-4412 0-1825-1310-3390-3177-4062zm0 0z" />
            <path class="ftizer2"
                d="M122906 67128c0 7631-6186 13816-13817 13816-7630 0-13816-6185-13816-13816 0-7630 6186-19956 13816-19956 7631 0 13817 12326 13817 19956zm0 0z" />
            <path class="ftizer3"
                d="M116097 50687c1581 3376 2510 7038 2510 9993 0 7631-6185 13817-13815 13817-3388 0-6489-1221-8892-3245 1755 5616 6995 9692 13190 9692 7630 0 13816-6185 13816-13815 0-5074-2735-12220-6809-16442zm0 0z" />
            <path class="ftizer4"
                d="M109090 89851c-8744 0-16819-5065-20676-12785-475-951-18-2106 972-2497l5200-2051c848-335 1828 1 2259 803 2382 4433 7121 7320 12244 7320 5124 0 9862-2887 12245-7320 431-802 1411-1138 2259-803l5200 2051c989 391 1447 1546 972 2497-3857 7720-11932 12785-20675 12785zm0 0z" />
            <path class="ftizer5"
                d="M126724 73753c-3840 7770-11941 12875-20719 12875-5628 0-10977-2100-15104-5654 4313 5475 11025 8877 18188 8877 8744 0 16819-5066 20676-12786 475-951 17-2105-971-2496l-2070-816zm0 0z" />
            <path class="ftizer6"
                d="M131828 119337H86351c-1007 0-1823-816-1823-1823v-14775c0-1007 816-1823 1823-1823h45476c1007 0 1823 816 1823 1823v14775c1 1007-815 1823-1822 1823zm0 0z" />
            <path class="ftizer5"
                d="M91536 73778c3840 7770 11941 12875 20719 12875 5628 0 10977-2100 15104-5654-4313 5475-11025 8877-18188 8877-8744 0-16819-5066-20676-12786-475-951-17-2105 971-2496l2070-816zm0 0z" />
            <path class="ftizer7"
                d="M90668 90478v8595c0 1019 825 1843 1842 1843h33159c1017 0 1841-824 1841-1843v-8595c0-1018-824-1843-1841-1843H92510c-1017 0-1842 825-1842 1843z" />
            <path class="ftizer8"
                d="M109090 17506v12977h17853c861 0 1449-734 1129-1409l-2223-4698c-116-246-116-519 0-764l2223-4697c320-675-268-1409-1129-1409h-17853zm0 0z" />
            <path class="ftizer9"
                d="M126943 17506h-2640l-2799 5916c-174 368-174 777 0 1145l2799 5916h2640c861 0 1449-734 1129-1410l-2223-4697c-116-246-116-519 0-764l2223-4697c320-675-268-1409-1129-1409zm0 0z" />
            <path class="ftizer10"
                d="M114309 11012c0 2437-2337 4412-5219 4412-2883 0-5220-1975-5220-4412s2337-4413 5220-4413c2882 0 5219 1976 5219 4413zm0 0z" />
            <g id="_1851749802384">
                <path class="ftizer11"
                    d="M111130 6950c268 531 416 1114 416 1725 0 2437-2337 4413-5220 4413-725 0-1415-125-2041-350 794 1579 2646 2686 4804 2686 2883 0 5220-1976 5220-4412 0-1825-1310-3390-3179-4062zm0 0zM45229 50059c-1259 0-2280-863-2280-1927V14910c0-1064 1021-1927 2280-1927 1258 0 2279 863 2279 1927v33222c0 1064-1021 1927-2279 1927zm0 0z" />
                <path class="ftizer11"
                    d="M109090 50059c-1259 0-2280-863-2280-1927V14910c0-1064 1021-1927 2280-1927 1258 0 2279 863 2279 1927v33222c0 1064-1021 1927-2279 1927zm0 0z" />
            </g>
            <path class="ftizer3"
                d="M38848 50687c-1581 3376-2510 7038-2510 9993 0 7631 6185 13817 13815 13817 3388 0 6489-1221 8892-3245-1755 5616-6996 9692-13190 9692-7630 0-13816-6185-13816-13815 0-5074 2735-12220 6809-16442zm0 0zM102709 50687c-1581 3376-2510 7038-2510 9993 0 7631 6185 13817 13815 13817 3388 0 6488-1221 8892-3245-1755 5616-6995 9692-13190 9692-7630 0-13816-6185-13816-13815 0-5074 2734-12220 6809-16442zm0 0z" />
            <path class="ftizer1"
                d="M22556 133693l-1254-3765c-248-745-946-1246-1730-1246h5241c1321 0 2495 844 2913 2098l34 101c418 1253 1590 2099 2913 2099h104835l-239 714c-418 1253-1213 2303-2234 3039-256 184-525 348-806 492-282 143-574 265-877 363-605 199-1247 304-1908 304H28382c-2643 0-4990-1691-5826-4199zm0 0z" />
            <path class="ftizer12" d="M20667 113908h49125v5429H20667zM84680 113668h49125v5429H84680z" />
        </g>
    </svg>
