<svg xmlns="http://www.w3.org/2000/svg" width="138mm" height="138mm" version="1.0"
     viewBox="0 0 13800 13800" shape-rendering="geometricPrecision"
     text-rendering="geometricPrecision" image-rendering="optimizeQuality"
     fill-rule="evenodd" clip-rule="evenodd">
    <defs>
        <style>

        </style>
    </defs>
    <g id="Слой_x0020_1">
        <path class="gray2"
              d="M13438.31 5418.33V12615c0 587.3-509.68 1058.33-1127.29 1058.33H1488.98c-618.63 0-1127.29-472.04-1127.29-1058.33V5418.33c0-193.17 254.52-285.75 393.14-141.55l3856.76 4023.25c85.39 88.9 207.42 139.96 335.09 139.96l3906.64.01c127.67 0 249.7-51.06 335.37-140.23l3856.48-4022.99c138.4-143.99 393.14-51.91 393.14 141.55z"
              fill="#f1cc76" fill-rule="nonzero"></path>
        <path class="gray1"
              d="M13380.53 5559.89l-1803.67 1881.45c-137.41 143.17-393.14 52.76-393.14-141.55V3725c0-187.67 242.54-282.89 384.97-149.75l1803.67 1693.33c84.83 79.64 88.21 207.7 8.17 291.31z"></path>
        <path class="gray1"
              d="M13372.36 5268.58l-549.56-515.94c84.83 79.64 88.21 207.7 8.17 291.31l-1647.26 1718.28v537.55c0 194.26 255.71 284.74 393.14 141.55l1803.67-1881.45c80.04-83.61 76.66-211.67-8.17-291.31l.01.01z"></path>
        <path class="gray1"
              d="M2616.28 3725v3574.79c0 193.62-255.06 285.41-393.14 141.55L419.47 5559.89c-80.04-83.61-76.66-211.67 8.17-291.31l1803.67-1693.33c142.2-132.93 384.97-38.18 384.97 149.75z"></path>
        <path class="gray1"
              d="M822.21 4898.14l-394.55 370.44c-84.83 79.64-88.21 207.7-8.17 291.31l1803.67 1881.45c137.41 143.17 393.14 52.76 393.14-141.55v-635c-62.57 0-124.01-24.61-167.69-70.11L822.21 4898.14z"></path>
        <path class="gray1"
              d="M4155.04 9136.26L846.99 13484.42c-126.82-82.55-234.76-189.18-316.2-312.74l3252.24-4274.61c70.17-96.31 210.52-121.18 313.39-55.03 102.59 65.88 129.08 197.64 58.62 294.22zM13269.21 13171.68c-81.44 123.56-189.38 230.19-316.2 312.74L9644.96 9136.26c-70.46-96.57-43.97-228.34 58.62-294.22 102.86-66.15 243.22-41.28 313.39 55.03l3252.24 4274.61z"></path>
        <path class="gray3"
              d="M11634.64 761.67v6538.12c0 52.39-20.57 102.66-57.78 141.55l-2053.08 2141.8c-171.07 178.06-415.41 280.19-670.46 280.19H4946.68c-255.06 0-499.39-102.13-670.18-279.93L2223.14 7441.33c-37.21-38.89-57.78-89.16-57.78-141.55V761.66c0-350.04 303.53-635 676.38-635l8116.52.01c372.85 0 676.38 284.96 676.38 635z"
              fill="#edebfd" fill-rule="nonzero"></path>
        <g id="_2164202514272">
            <path class="gray1"
                  d="M9830.97 2455H3969.03c-124.51 0-225.46-94.77-225.46-211.67 0-116.9 100.94-211.67 225.46-211.67l5861.94.01c124.51 0 225.46 94.77 225.46 211.67 0 116.9-100.94 211.67-225.46 211.67v-.01zM9830.97 4148.33H3969.03c-124.51 0-225.46-94.77-225.46-211.67 0-116.9 100.94-211.67 225.46-211.67l5861.94.01c124.51 0 225.46 94.77 225.46 211.67 0 116.9-100.94 211.67-225.46 211.67v-.01zM9830.97 5841.67H3969.03c-124.51 0-225.46-94.77-225.46-211.67 0-116.9 100.94-211.67 225.46-211.67h5861.94c124.51 0 225.46 94.77 225.46 211.67 0 116.9-100.94 211.67-225.46 211.67zM9830.97 7535H3969.03c-124.51 0-225.46-94.77-225.46-211.67 0-116.9 100.94-211.67 225.46-211.67l5861.94.01c124.51 0 225.46 94.77 225.46 211.67 0 116.9-100.94 211.67-225.46 211.67v-.01z"></path>
        </g>
    </g>
</svg>