<svg xmlns="http://www.w3.org/2000/svg" width="50mm" height="50mm" version="1.0" viewBox="0 0 5000 5000" shape-rendering="geometricPrecision" text-rendering="geometricPrecision" image-rendering="optimizeQuality" fill-rule="evenodd" clip-rule="evenodd">
    <g id="Слой_x0020_1">
        <path class="menu0" d="M677.96 2644.2c-116.9 0-211.67-94.77-211.67-211.67 0-116.9 94.77-211.67 211.67-211.67v423.34zm3577.17 0H677.96v-423.34h3577.17v423.34zm0-423.34c116.9 0 211.67 94.77 211.67 211.67 0 116.9-94.77 211.67-211.67 211.67v-423.34zM677.96 3911.51c-116.9 0-211.67-94.77-211.67-211.67 0-116.9 94.77-211.67 211.67-211.67v423.34zm3577.17 0H677.96v-423.34h3577.17v423.34zm0-423.34c116.9 0 211.67 94.77 211.67 211.67 0 116.9-94.77 211.67-211.67 211.67v-423.34zM4255.13 953.55c116.9 0 211.67 94.77 211.67 211.67 0 116.9-94.77 211.67-211.67 211.67V953.55zm-1788.58 0h1788.58v423.34H2466.55V953.55zm0 423.34c-116.9 0-211.67-94.77-211.67-211.67 0-116.9 94.77-211.67 211.67-211.67v423.34z"></path>
    </g>
</svg>