<svg xmlns="http://www.w3.org/2000/svg" width="138mm" height="138mm" version="1.0" viewBox="0 0 13800 13800" shape-rendering="geometricPrecision" text-rendering="geometricPrecision" image-rendering="optimizeQuality" fill-rule="evenodd" clip-rule="evenodd">
                                    <defs>
                                        <style>
                                        .fil603 {
                                            fill: #9da5a9;
                                            
                                        }
                                        .fil604{
                                            fill: #6a7073;
                                        }
                                        .fil602 {
                                            fill: #6a7073; 
                                           
                                        }
                                        .fil601 {
                                            fill: #d0d0d0;
                                           
                                        }
                                        .fil600 {
                                            
                                            fill-rule:nonzero;
                                        }
                                        </style>
                                    </defs>
                                    <g class="fil600">
                                        <path class="fil601" d="M7202.84 1894.55c-165.26-169.71-440.43-169.71-605.68 0L1930.78 6686.73v6000.53c0 335.58 275.75 607.62 615.9 607.62l8706.62-.01c340.15 0 615.9-272.04 615.9-607.62V6686.7L7202.84 1894.55z" />
                                        <path class="fil602" d="M5238.92 13294.9v-2485.17c0-905.05 743.69-1638.71 1661.05-1638.71 917.39 0 1661.05 733.69 1661.05 1638.71v2485.17H5238.91h.01z" />
                                        <path class="fil603" d="M7202.84 1894.55c-165.26-169.71-440.43-169.71-605.68 0l-841.67 864.36c130.28-19.71 268.1 20.62 366.79 121.97l4666.38 4792.18v5621.84h464.64c340.15 0 615.9-272.04 615.9-607.62V6686.73L7202.84 1894.55z" />
                                        <path class="fil604" d="M6597.16 2656.79L1162.88 8237.57c-108.64 111.56-288.98 113.37-399.84 3.97l-554.38-546.93c-107.79-106.34-109.54-278.19-3.94-386.62L6496.19 846.85c220.35-226.29 587.24-226.29 807.56 0l6291.5 6461.14c105.6 108.45 103.85 280.28-3.94 386.62l-554.36 546.93c-110.89 109.4-291.2 107.59-399.84-3.97L7202.83 2656.79c-165.26-169.72-440.43-169.72-605.68 0h.01z" />
                                    </g>
                                </svg>