<svg xmlns="http://www.w3.org/2000/svg" viewBox="0 0 248000 248000"
                                    shape-rendering="geometricPrecision" text-rendering="geometricPrecision"
                                    image-rendering="optimizeQuality" fill-rule="evenodd" clip-rule="evenodd">
                                    <defs>
                                        <style>
                                        .fil9001 {
                                            fill: #d0d0d0
                                        }

                                        .fil9002 {
                                            fill: #6a7073
                                        }

                                        .fil9003 {
                                            fill: #6a7073
                                        }
                                        </style>
                                    </defs>
                                    <g id="Слой_x0020_1">
                                        <path
                                            d="M243658 92529l-14173-69365c-2279-11108-11175-18863-21629-18863-12214 0-22160 10809-22160 24091v3733c0 3076 2289 5565 5118 5565s5118-2489 5118-5565v-3733c0-7147 5347-12961 11924-12961 5627 0 10414 4178 11634 10151l2249 61876c1391 3649 10082 5302 14615 33705-2610-28042-19194-36961-45658-36961-23138 0-38104-3228-44411 19734-3131-3590-16666-10597-21998-10597-5331 0-18867 5392-21998 8982-6307-22962-16586-24680-39724-24680-26464 0-47734 15480-50345 43522 1661-15750 9145-29755 15645-34806l1219-60770c1219-5978 6007-10157 11634-10157 6577 0 11924 5815 11924 12961v3734c0 3076 2289 5565 5118 5565 2828 0 5117-2489 5117-5565v-3733c0-13282-9945-24091-22159-24091-10455 0-19350 7755-21629 18868L4916 92529c-2289 11228-3448 22733-3448 34199 0 3076 2289 5565 5117 5565h5635c2611 28042 24194 50084 50658 50084 27780 0 50351-24234 51046-54264 1028-3111 4622-6053 9868-6053 5112 0 9644 2418 10858 6037 686 30038 23262 54280 51047 54280 26464 0 48047-22042 50658-50084h5634c2829 0 5118-2489 5118-5565-1-11466-1160-22971-3449-34199z"
                                            fill="#768185" />
                                        <circle class="fil9001" cx="61161" cy="127724" r="55774" />
                                        <path class="fil9002"
                                            d="M17783 92663c4903-10500 4599-10090 19055-18271l5313-58869c-6675-5326-10353 287-13067 10064L17783 92663zM232122 92743c-3995-12357-10318-15117-21119-21073l-3147-56239c6675-5327 8920 374 11634 10151l12632 67161z" />
                                        <path class="fil9003" d="M28204 35144h68999v26985H28204zM151279 24715h65115v23898h-65115z" />
                                        <circle class="fil9001" cx="188724" cy="128050" r="55944" />
                                        <path fill="#6a7073" d="M177040 198496l-99623-670 6653 17535 42508 29925 38515-26445z" />
                                        <path fill="#6f787a" d="M157231 213930l-32494-14584-28520 15214 30361 30726z" />
                                        <path fill="none" stroke="#848d8f" stroke-width="4724" d="M104480 176064h41780" />
                                    </g>
                                </svg>