 <svg xmlns="http://www.w3.org/2000/svg" width="67mm" height="16mm" version="1.0" viewBox="0 0 6700 1600" shape-rendering="geometricPrecision" text-rendering="geometricPrecision" image-rendering="optimizeQuality" fill-rule="evenodd" clip-rule="evenodd">
                                <defs>
                                    <linearGradient id="id0" gradientUnits="userSpaceOnUse" x1="497.25" y1="1166.15" x2="876.23" y2="443.32">
                                    <stop offset="0" stop-color="#512a5e"/>
                                    <stop offset=".259" stop-color="#ed821d"/>
                                    <stop offset=".49" stop-color="#e74623"/>
                                    <stop offset=".722" stop-color="#59b14e"/>
                                    <stop offset="1" stop-color="#1187c6"/>
                                    </linearGradient>
                                    <linearGradient id="id1" gradientUnits="userSpaceOnUse" x1="591.45" y1="1122.42" x2="1059.7" y2="496.5">
                                    <stop offset="0" stop-color="#ab5198"/>
                                    <stop offset=".259" stop-color="#ef8319"/>
                                    <stop offset=".49" stop-color="#e74523"/>
                                    <stop offset=".722" stop-color="#5ab24b"/>
                                    <stop offset="1" stop-color="#1389c9"/>
                                    </linearGradient>
                                    <style>
                                    .fil3{
                                        fill:#5b5b5b;
                                        fill-rule:nonzero
                                    }
                                    </style>
                                </defs>
                                <g id="Слой_x0020_1">
                                    <path class="logo1" d="M819.41 52.76c417.91 0 756.7 338.79 756.7 756.7s-338.79 756.7-756.7 756.7-756.7-338.79-756.7-756.7 338.79-756.7 756.7-756.7z" fill="#b2b3b3"/>
                                    <path class="logo36" d="M662.5 610.97c15.75 0 37.02 11.65 63.8 34.96 26.78 23.32 40.17 42.55 40.17 57.66 0 36.55-22.37 124.3-67.11 263.25-44.74 138.94-78.46 208.42-101.14 208.42-11.97 0-25.35-8.98-40.17-26.94-14.8-17.96-22.22-33.24-22.22-45.84 0-12.6 1.59-26 4.74-40.18 3.15-14.18 6.45-27.41 9.92-39.7 3.46-12.28 8.82-29.77 16.07-52.46 7.24-22.68 13.07-40.96 17.48-54.81-45.37 15.75-89.95 23.62-133.74 23.62-43.8 0-77.83-11.97-102.09-35.91-24.26-23.95-36.39-56.09-36.39-96.42 0-28.99 15.59-73.1 46.79-132.33 31.19-59.23 65.7-112.48 103.5-159.74 37.81-47.26 64.75-70.89 80.81-70.89 16.08 0 32.78 7.87 50.11 23.63 17.32 15.76 25.99 30.41 25.99 43.95 0 13.55-29.46 62.23-88.38 146.03-58.92 83.82-88.38 133.29-88.38 148.41 0 6.3 1.26 10.4 3.78 12.29 2.53 1.88 8.2 2.83 17.02 2.83 21.42 0 52.3-8.5 92.62-25.52 40.34-17.01 62.08-25.83 65.22-26.47 8.2-44.73 12.3-87.9 12.3-129.49 0-18.91 9.76-28.35 29.3-28.35z" fill="url(#id1)" fill-rule="nonzero"/>
                                    <path class="logo36" d="M1154.02 459.73c115.32 0 172.97 13.86 172.97 41.58 0 11.98-9.77 22.38-29.29 31.19-23.33 11.35-51.53 20.8-84.6 28.36-33.09 7.57-59.55 13.55-79.4 17.96-19.85 4.41-35.45 8.04-46.79 10.88-11.34 2.83-22.53 15.91-33.56 39.22-11.03 23.32-16.54 41.59-16.54 54.82 0 13.24 6.15 27.1 18.43 41.6 12.29 14.49 27.26 28.67 44.9 42.53 17.65 13.86 35.29 28.36 52.93 43.48 42.22 35.92 63.33 72.46 63.33 109.65 0 57.34-28.2 109.8-84.6 157.38-56.39 47.57-111.68 71.36-165.89 71.36-54.19 0-100.34-14.65-138.46-43.96-38.13-29.3-57.19-62.54-57.19-99.71 0-11.98 2.21-22.37 6.62-31.19 4.41-8.83 10.39-13.24 17.96-13.24 7.56 0 17.32 5.67 29.29 17.01 37.19 35.29 70.27 52.94 99.25 52.94 28.99 0 60.34-11.98 94.06-35.93 33.71-23.94 50.56-47.89 50.56-71.83 0-21.43-21.1-46.31-63.32-74.67-17.65-11.98-35.14-24.9-52.46-38.75-17.34-13.87-32.14-31.52-44.44-52.94-12.28-21.42-18.43-47.26-18.43-77.51 0-30.24 15.13-72.31 45.37-126.19 30.26-53.88 57.98-83.01 83.18-87.42 25.21-4.41 70.58-6.62 136.12-6.62z" fill="url(#id0)" fill-rule="nonzero"/>
                                    <path class="logo0" d="M1908.4 541.28c6.21-18.62 24.28-30.48 54.19-35.56 29.92-5.08 75.21-7.62 135.89-7.62 60.68 0 107.1 4.94 139.28 14.82 32.17 9.88 48.26 23.85 48.26 41.91 0 8.47-3.25 14.54-9.74 18.2-6.49 3.67-12.13 6.5-16.93 8.47-4.8 1.98-11.29 3.81-19.47 5.5-8.19 1.7-15.67 3.25-22.44 4.66-6.77 1.41-15.67 2.68-26.67 3.81-11.01 1.13-20.46 2.12-28.37 2.96-7.9.85-18.34 1.98-31.32 3.39-12.98 1.41-24.84 2.68-35.56 3.81-10.73 1.13-38.95 5.36-84.67 12.7v.85c0 20.32-8.75 74.22-26.25 161.71 7.34.57 20.75.85 40.22.85s45.02-1.55 76.62-4.66c31.61-3.1 52.36-4.65 62.23-4.65 9.88 0 18.21 2.54 24.98 7.62s10.16 10.72 10.16 16.93c0 15.24-9.03 28.79-27.09 40.64-18.06 11.85-40.64 21.17-67.74 27.94-54.18 13.55-101.88 20.88-143.08 22.01-16.94 71.69-27.24 115.57-30.91 131.66-3.66 16.09-7.48 31.47-11.43 46.14-7.33 28.79-14.11 43.18-20.32 43.18-11.85 0-27.94-13.26-48.26-39.79-20.32-26.53-30.48-46.28-30.48-59.27 0-22.57 13.97-94.26 41.91-215.05 27.94-120.79 42.76-196.71 44.45-227.76v-6.77c0-7.34.85-13.55 2.54-18.63z"/>
                                    <path id="1" class="logo0" d="M2515.47 962.5c32.74-29.07 61.24-65.76 85.51-110.06 24.28-44.31 36.41-86.79 36.41-127.43s-5.08-71.97-15.24-93.98c-10.16-22.01-24.27-33.02-42.33-33.02s-41.63 16.23-70.7 48.68c-29.07 32.46-55.31 74.94-78.74 127.43-23.42 52.49-35.14 102.73-35.14 150.71 0 24.27 3.39 43.88 10.16 58.84 6.78 14.96 15.24 22.44 25.4 22.44 23.71 0 51.93-14.54 84.67-43.61zm-83.82 146.05c-41.77 0-79.02-20.46-111.76-61.38-32.74-40.92-49.11-81.7-49.11-122.34 0-51.93 9.88-105.13 29.64-159.6 19.75-54.47 44.45-101.6 74.08-141.4 29.63-39.79 62.23-72.53 97.79-98.21 35.56-25.68 68.3-38.52 98.21-38.52 54.76 0 99.63 23.28 134.63 69.85 34.99 46.56 52.49 98.92 52.49 157.06 0 58.13-14.68 116.98-44.03 176.53-29.35 59.54-69.85 110.77-121.5 153.67-51.64 42.89-105.12 64.34-160.44 64.34z"/>
                                    <path id="2" class="logo0" d="M3039.56 962.5c32.74-29.07 61.24-65.76 85.51-110.06 24.28-44.31 36.41-86.79 36.41-127.43s-5.08-71.97-15.24-93.98c-10.16-22.01-24.27-33.02-42.33-33.02s-41.63 16.23-70.7 48.68c-29.07 32.46-55.31 74.94-78.74 127.43-23.42 52.49-35.14 102.73-35.14 150.71 0 24.27 3.39 43.88 10.16 58.84 6.78 14.96 15.24 22.44 25.4 22.44 23.71 0 51.93-14.54 84.67-43.61zm-83.82 146.05c-41.77 0-79.02-20.46-111.76-61.38-32.74-40.92-49.11-81.7-49.11-122.34 0-51.93 9.88-105.13 29.64-159.6 19.75-54.47 44.45-101.6 74.08-141.4 29.63-39.79 62.23-72.53 97.79-98.21 35.56-25.68 68.3-38.52 98.21-38.52 54.76 0 99.63 23.28 134.63 69.85 34.99 46.56 52.49 98.92 52.49 157.06 0 58.13-14.68 116.98-44.03 176.53-29.35 59.54-69.85 110.77-121.5 153.67-51.64 42.89-105.12 64.34-160.44 64.34z"/>
                                    <path id="3" class="logo0" d="M3385 487.1c44.03 0 92.15 9.03 144.36 27.09 52.21 18.06 100.75 41.77 145.63 71.12 44.87 29.35 82.41 64.63 112.61 105.83 30.19 41.21 45.29 82.98 45.29 125.31 0 31.61-25.54 70.98-76.62 118.11-51.08 47.13-110.21 87.92-177.38 122.35-67.17 34.43-122.2 51.64-165.1 51.64-9.6 0-24.98-12.56-46.14-37.67-21.17-25.12-31.75-43.61-31.75-55.46 0-23.14 15.38-87.63 46.14-193.46 30.76-105.84 49.81-178.51 57.15-218.02-20.32-13.55-37.25-29.78-50.8-48.69-13.55-18.9-20.32-34.99-20.32-48.26 0-13.26 5.64-19.89 16.93-19.89zm325.97 305.65c0-18.07-16.65-41.91-49.95-71.55-33.3-29.63-71.97-54.33-116-74.08-3.38 42.33-27.37 132.93-71.96 271.78-2.26 7.34-5.79 19.33-10.59 35.98-4.79 16.65-8.32 27.8-10.58 33.45 55.32-18.63 112.33-50.1 171.03-94.41 58.7-44.31 88.05-78.03 88.05-101.17z"/>
                                    <path id="4" class="logo0" d="M4063.18 609.02c-60.96 3.38-94.26 5.08-99.9 5.08-13.55 0-27.1-8.33-40.64-24.98-13.55-16.65-20.32-34.01-20.32-52.07 0-27.66 80.43-41.49 241.3-41.49 82.41 0 143.09 8.47 182.03 25.4 38.95 16.94 58.42 37.54 58.42 61.81 0 7.34-4.23 14.25-12.7 20.74-8.46 6.5-19.19 9.74-32.17 9.74s-36.69-.85-71.12-2.54c-34.43-1.69-65.76-2.82-93.98-3.39 2.26 6.78 3.38 14.68 3.38 23.71 0 9.03-3.24 26.81-9.73 53.34-6.49 26.53-15.67 63.36-27.52 110.49-11.85 47.13-24.83 104.14-38.95 171.03-14.11 66.89-23.84 106.68-29.21 119.38-5.36 12.7-10.58 19.05-15.66 19.05-11.85 0-26.67-10.87-44.45-32.6-17.78-21.73-26.67-39.37-26.67-52.91 0-13.55 11.57-69.57 34.71-168.07 23.15-98.49 37.54-179.07 43.18-241.72z"/>
                                    <path id="5" class="logo0" d="M4796.4 1078.07c0 23.15-16.08 34.72-48.26 34.72-44.03 0-90.17-22.86-138.43-68.58-48.26-45.72-82.55-93.42-102.87-143.09-9.03 27.09-15.24 45.44-18.63 55.03-3.38 9.6-8.46 24.84-15.24 45.72-6.77 20.89-11.99 36.41-15.66 46.57-3.67 10.16-7.76 20.88-12.28 32.17-8.46 21.45-16.65 32.18-24.55 32.18-12.98 0-28.65-10.87-46.99-32.6-18.34-21.73-27.52-39.37-27.52-52.92 0-13.54 6.49-38.66 19.48-75.35 38.38-112.33 60.39-214.77 66.04-307.34-10.73-8.47-20.32-20.32-28.79-35.56-8.47-15.24-12.7-27.94-12.7-38.1 0-16.94 21.87-34.72 65.62-53.34 43.74-18.63 94.26-27.94 151.55-27.94 57.29 0 105.13 13.54 143.51 40.64 38.38 27.09 57.58 62.37 57.58 105.83 0 32.17-9.46 63.08-28.37 92.71-18.91 29.64-39.51 52.78-61.81 69.43-22.29 16.65-42.89 31.75-61.8 45.3-18.91 13.54-28.37 22.29-28.37 26.24 0 13.55 4.52 26.39 13.55 38.53 9.03 12.13 21.73 26.24 38.1 42.33s30.48 29.63 42.33 40.64c11.86 11.01 21.6 20.18 29.22 27.52 7.62 7.33 15.09 14.95 22.43 22.86 15.24 14.67 22.86 26.81 22.86 36.4zm-118.53-433.49c0-23.71-23.14-35.56-69.43-35.56-22.01 0-48.26 6.21-78.74 18.62 14.11 21.45 21.17 41.21 21.17 59.27 0 32.74-4.52 68.86-13.55 108.38 6.21-4.52 17.78-12.56 34.71-24.13 16.94-11.58 30.06-20.89 39.37-27.94 9.32-7.06 19.9-16.23 31.75-27.52 23.15-22.02 34.72-45.72 34.72-71.12z"/>
                                    <path id="6" class="logo0" d="M5256.15 791.05c22.57 0 38.8 2.12 48.68 6.35 9.88 4.24 14.82 12 14.82 23.29 0 15.24-24.56 30.76-73.67 46.56 1.13 42.9 1.7 83.96 1.7 123.19 0 39.23-3.11 68.58-9.32 88.06-6.2 19.47-16.08 29.21-29.63 29.21s-24.13-6.92-31.75-20.75c-7.62-13.83-13.83-36.54-18.63-68.15-4.79-31.61-9.73-73.38-14.81-125.31-57.58 12.98-99.06 23.42-124.46 31.33-44.03 121.92-73.38 182.88-88.06 182.88-11.85 0-27.51-7.91-46.99-23.71-19.47-15.8-29.21-32.17-29.21-49.11 0-9.59 11.01-39.51 33.02-89.74-9.59-6.21-17.92-15.1-24.97-26.67-7.06-11.58-10.59-22.72-10.59-33.45 0-18.62 27.94-36.4 83.82-53.34 4.52-11.29 9.18-24.13 13.97-38.52 4.8-14.39 16.94-48.12 36.41-101.18 19.47-53.06 34.86-97.37 46.14-132.93 5.08-16.93 22.72-32.73 52.92-47.41 30.2-14.67 53.76-22.01 70.7-22.01 19.75 0 37.39 27.37 52.91 82.12 15.53 54.76 26.39 127.85 32.6 219.29h14.4zm-195.59 14.4c16.94-2.26 41.49-5.08 73.66-8.47-1.69-16.37-4.37-44.31-8.04-83.82-3.67-39.51-6.35-68.02-8.04-85.52-9.6 31.61-28.79 90.88-57.58 177.81z"/>
                                    <path id="7" class="logo0" d="M5475.43 1108.55c-11.29 0-26.53-11.71-45.72-35.13-19.19-23.43-28.79-40.5-28.79-51.23 0-10.72 13.97-89.32 41.91-235.79 27.94-146.48 42.48-236.37 43.61-269.67 1.13-18.63 9.87-27.94 26.24-27.94 13.55 0 31.61 13.55 54.19 40.64s33.87 52.49 33.87 76.2c0 10.16-7.76 48.4-23.29 114.73-15.52 66.32-25.96 112.6-31.32 138.85-5.36 26.25-10.02 49.67-13.97 70.27-3.95 20.6-7.06 36.83-9.32 48.69-15.8 72.25-28.22 113.73-37.25 124.46-3.39 3.95-6.77 5.92-10.16 5.92z"/>
                                    <path id="8" class="logo0" d="M5804.78 476.09c14.12 0 31.33 9.31 51.65 27.94 20.32 18.63 30.48 37.82 30.48 57.57 0 54.19-27.94 159.18-83.82 314.97-19.19 54.75-28.79 92.85-28.79 114.3 0 2.82.57 4.51 1.7 5.08 1.13.56 11.57.84 31.32.84 19.76 0 46.99-2.96 81.71-8.89 34.71-5.92 62.93-11.71 84.66-17.35 21.74-5.65 34.58-8.47 38.53-8.47 14.11 0 21.16 9.03 21.16 27.09 0 35.56-26.95 64.21-80.85 85.94-53.91 21.73-116.42 32.6-187.54 32.6-27.66 0-52.92-10.3-75.78-30.91-22.86-20.6-34.29-43.32-34.29-68.15 0-24.84 20.89-105.13 62.66-240.88 41.77-135.75 62.65-223.66 62.65-263.74 0-18.63 8.19-27.94 24.55-27.94z"/>
                                    <path id="9" class="logo0" d="M6504.98 933.29c0 47.98-22.86 89.19-68.58 123.62-45.72 34.43-97.93 51.64-156.64 51.64-58.7 0-105.97-14.53-141.81-43.6-35.85-29.07-53.77-59.13-53.77-90.17 0-31.05 8.75-46.57 26.25-46.57 13.55 0 27.66 6.78 42.33 20.32 14.68 13.55 31.19 27.1 49.53 40.64 18.35 13.55 39.09 20.32 62.23 20.32 23.15 0 49.39-9.59 78.74-28.78 29.36-19.2 44.03-35.28 44.03-48.26 0-12.99-15.94-34.72-47.84-65.2-31.89-30.48-63.78-61.95-95.67-94.4-31.89-32.46-47.84-57.57-47.84-75.35 0-17.79 3.25-37.12 9.74-58 6.49-20.89 14.53-35.28 24.13-43.18 30.48-29.92 69.85-55.74 118.11-77.47 48.26-21.73 90.74-32.6 127.42-32.6 21.45 0 39.23 9.17 53.35 27.52 14.11 18.34 21.16 37.39 21.16 57.15 0 7.9-6.35 14.25-19.05 19.05-12.7 4.8-31.04 9.73-55.03 14.81-23.99 5.08-48.4 12.42-73.24 22.02-57.57 21.45-86.36 39.51-86.36 54.18 0 6.78 9.88 19.06 29.63 36.84 19.76 17.78 41.35 36.4 64.77 55.88 23.43 19.47 45.02 44.02 64.77 73.66 19.76 29.63 29.64 58.27 29.64 85.93z"/>
                                </g>
                            </svg>