
    <svg xmlns="http://www.w3.org/2000/svg" viewBox="0 0 153500 153500" shape-rendering="geometricPrecision"
        text-rendering="geometricPrecision" image-rendering="optimizeQuality" fill-rule="evenodd" clip-rule="evenodd">
        <defs>
            <style>
            .fmains9 {
                fill: #b09c41
            }

            .fmains8 {
                fill: #ffd061
            }

            .fmains7 {
                fill: #ffe054
            }

            .fmains1 {
                fill: #ffeb94
            }
            </style>
        </defs>
        <g id="Слой_x0020_1">
            <path d="M77172 19749c-33063 0-59867 29475-59867 65832h119733c0-36357-26803-65832-59866-65832zm0 0z"
                fill="#ffd336" />
            <path class="fmains1"
                d="M144136 95567H10207c-2268 0-4106-2023-4106-4517v-2875c0-2493 1838-4516 4106-4516h133930c2268 0 4106 2023 4106 4516v2875c0 2494-1838 4516-4107 4516v1zm0 0z" />
            <path
                d="M40778 141279l983-4201c1386-5921 6069-10624 11929-11981 6193-1434 13326-536 18152 263 5443 902 11162 594 16538-893l7887-2180c4978-1375 9559-3692 13618-6886l13603-12048c3543-2615 919-10692-5561-6662l-13390 8863-13246 3833-9401 204 6338-3357c2406-1237 3437-4149 2344-6629-378-858-993-1594-1777-2128-1178-799-2660-1090-4068-797l-18577 3874-14182-3826c-2027-547-4022-1218-6082-1163-5278 144-10522 2651-14424 6357l-44 42-17403 21132 26763 18183zm0 0z"
                fill="#ffe4c9" />
            <path
                d="M123356 96255l-15054 10941c-4058 3194-13519 9234-48393 6233-4873-420-11958-1699-18151-264-4662 1080-13654 12507-17137 17137l16157 10977 983-4199c1386-5923 6069-10626 11930-11982 6193-1434 13326-537 18152 263 5443 902 11161 593 16537-893l7887-2179c4978-1376 9559-3694 13618-6888l13604-12048c2252-1664 2011-5537-133-7098zm0 0z"
                fill="#f0ccad" />
            <path
                d="M45919 133412l-27367-18591c-1725-1172-4074-722-5245 1004l-3999 5899c-1169 1724-720 4069 1004 5240l27366 18591c1725 1172 4074 722 5245-1005l3999-5897c1169-1724 720-4070-1003-5241zm0 0z"
                fill="#0d6e9a" />
            <path
                d="M45919 133412l-10513-7142-8235 12147 10507 7138c1665 1131 3906 748 5113-830l4245-6261c1017-1702 545-3923-1117-5052zm0 0z"
                fill="#09627a" />
            <path class="fmains1"
                d="M85475 14401c0 5045-3719 9135-8307 9135-4587 0-8306-4090-8306-9135 0-5044 16613-5044 16613 0zm0 0z" />
            <path
                d="M18085 74930l-755 8729c969-885 3747 923 3859-343 5057-57137 103232-65095 112016 87 217 1610 2559-891 3808 256l-793-8988C126513-416 27711 3060 18085 74930z"
                fill="#ffc130" />
            <path class="fmains7" d="M24511 71024l238-2326 104821 54-6 2272zM38698 52983l173-2326 75870 53-4 2273z" />
            <path class="fmains8"
                d="M114427 53051l33-2326 14770 53-1 2273zM24756 53237l34-2326 14769 53v2273zM129281 71131l14-2326 6122 54v2272zM19007 70989l14-2326 6122 54-1 2272z" />
            <path class="fmains9"
                d="M81794 56190c-643-895-732-1931-199-2313l9652-6932c533-383 1487 32 2129 927 643 895 732 1931 199 2314l-9653 6931c-533 383-1486-32-2128-927z" />
            <path class="fmains9"
                d="M89178 62233l-2734 1964c-2138 1551-4783 2237-7405 1920-4932-558-8478-5008-7920-9939 34-298 82-594 145-887 538-2586 2033-4873 4186-6404l2734-1963 10994 15309z" />
            <path class="fmains9"
                d="M56530 76413c-1321-701-2588-2465-2830-3941-116-709 25-1255 392-1518l18179-11648 2668 3716-16845 13505c-367 264-929 222-1564-114zM86072 61940c-643-895-732-1930-199-2313l9652-6932c534-383 1487 32 2129 927 643 895 732 1931 199 2314l-9652 6931c-534 383-1487-32-2129-927zM77192 50127c-643-895-732-1930-199-2313l9653-6932c533-383 1486 32 2128 927 643 895 732 1931 199 2314l-9652 6931c-533 383-1487-32-2129-927z" />
        </g>
    </svg>
