<svg xmlns="http://www.w3.org/2000/svg" width="125mm" height="125mm" version="1.0" viewBox="0 0 12500 12500" shape-rendering="geometricPrecision" text-rendering="geometricPrecision" image-rendering="optimizeQuality" fill-rule="evenodd" clip-rule="evenodd">
                                    <defs>
                                        <style>
                                        .fil703,.fil704{
                                            fill: #b1b1b1;
                                            fill-rule:nonzero
                                        }
                                        .fil704{
                                            fill:#cecece;
                                        }
                                        .fil702 {
                                            fill: #ececec;
                                            fill-rule:nonzero;
                                        }
                                        .fil701 {
                                            fill:#4a4e50;
                                            fill-rule:nonzero;
                                        }
                                        .fil700 {
                                            fill: #6a7073;
                                            fill-rule:nonzero;
                                        }
                                        .fil705 {
                                            fill: #c5c5c5;
                                            fill-rule:nonzero;
                                        }
                                        </style>
                                    </defs>
                                    <g id="Слой_x0020_1">
                                        <path class="fil700" d="M1170 111.67c-233.75 0-423.32 189.57-423.32 423.33v11430c0 233.75 189.57 423.32 423.33 423.32l10583.32.01V111.66L1170 111.67z" />
                                        <path class="fil701" d="M1170 111.67h846.67v12276.67l-846.67-.01c-233.75-.01-423.32-189.58-423.32-423.34v-11430c0-233.75 189.57-423.32 423.33-423.32h-.01z" />
                                        <path class="fil702" d="M10483.33 4345c0-701.27-568.72-1269.83-1270-1269.83-426.69 0-825.01 214.43-1059.91 570.42-34.39-675.32-592.1-1205.43-1268.42-1205.43-676.31 0-1234.02 530.11-1268.28 1205.5-234.96-356.27-633.43-570.86-1060.28-570.86-701.28 0-1270 568.72-1270 1270 0 453.83 242.19 873.39 635.23 1100.07v2075.21l5926.66-.08V5444.66c392.84-226.56 635.01-645.83 635.01-1099.35v-.31h-.01z" />
                                        <path class="fil703" d="M7943.33 9425H5826.67c-116.87-.01-211.66-94.8-211.66-211.68 0-116.88 94.79-211.67 211.67-211.67l2116.65.02c116.88-.02 211.67 94.77 211.67 211.65 0 116.88-94.79 211.67-211.67 211.67v.01zM9001.67 10271.67H4768.33c-116.87-.01-211.66-94.8-211.66-211.68 0-116.88 94.79-211.67 211.67-211.67l4233.33.01c116.88-.01 211.67 94.78 211.67 211.66s-94.79 211.67-211.67 211.67v.01z"/>
                                        <path class="fil704" d="M7943.33 7308.33c-116.88 0-211.67-94.79-211.67-211.67V6038.33c0-116.88 94.79-211.67 211.67-211.67 116.88 0 211.67 94.79 211.67 211.67v1058.33c0 116.88-94.79 211.67-211.67 211.67zM5826.67 7308.33c-116.87 0-211.66-94.79-211.66-211.67V6038.33c0-116.88 94.79-211.67 211.67-211.67 116.88 0 211.67 94.79 211.67 211.67v1058.33c0 116.88-94.79 211.67-211.67 211.67h-.01z"/>
                                        <path class="fil705" d="M3921.67 7096.67h5926.66v846.67l-5926.66-.01v-846.66z" />
                                    </g>
                                </svg>