<svg width="500" height="500" xmlns="http://www.w3.org/2000/svg" viewBox="0 0 153500 153500"
     shape-rendering="geometricPrecision"
     text-rendering="geometricPrecision" image-rendering="optimizeQuality" fill-rule="evenodd" clip-rule="evenodd">
    <defs>
        <style>
            .fsoup9 {
            fill: #f2d8a0
            }

            .fsoup10 {
            fill: #fce9c3
            }

            .fsoup1 {
            fill: #ffb792
            }

            .fsoup4 {
            fill: #ffe783
            }

            .fsoup3 {
            fill: #fff4bd
            }
        </style>
    </defs>
    <g id="Слой_x0020_1">
        <path
                d="M137384 53727c2143 2143 843 6562 1934 9198 1131 2733 5138 4961 5138 7873 0 2911-4008 5140-5138 7874-1091 2636 209 7055-1934 9198-2144 2143-6562 843-9198 1934-2733 1130-4962 5137-7874 5137-2913 0-5139-4007-7873-5138-2636-1091-7055 209-9198-1934-2144-2143-843-6562-1935-9198-1130-2734-5138-4961-5137-7873-1-2912 4007-5141 5138-7874 1091-2636-210-7055 1933-9198 2144-2144 6562-844 9199-1934 2733-1131 4962-5138 7873-5138 2912 0 5141 4006 7873 5137 2636 1093 7055-208 9199 1936z"
                fill="#ffea33"/>
        <path class="fsoup1"
              d="M137384 53727c2143 2143 843 6562 1934 9198 1131 2733 5138 4961 5138 7873 0 2911-4008 5140-5138 7874-1091 2636 209 7055-1934 9198-2144 2143-6562 843-9198 1934-2733 1130-4962 5137-7874 5137-2913 0-5139-4007-7873-5138-2636-1091-7055 209-9198-1934-2144-2143-843-6562-1935-9198-1130-2734-5138-4961-5137-7873-1-2912 4007-5141 5138-7874 1091-2636-210-7055 1933-9198 2144-2144 6562-844 9199-1934 2733-1131 4962-5138 7873-5138 2912 0 5141 4006 7873 5137 2636 1093 7055-208 9199 1936z"/>
        <circle cx="120310" cy="70797" r="13597" fill="#f9d9ca"/>
        <path class="fsoup1"
              d="M125390 70798c0 2804-2273 5077-5078 5077-2803 0-5076-2273-5076-5077 0-2803 2273-5077 5076-5077 2805 0 5078 2273 5078 5077z"/>
        <path class="fsoup3"
              d="M88653 123709c-10629 0-19246-8617-19246-19247V64814c0-10630 8617-19247 19246-19247 10631 0 19248 8617 19248 19247l-1 39648c1 10630-8616 19247-19247 19247z"/>
        <path class="fsoup4"
              d="M77106 64814c0-6368 5180-11548 11548-11548s11548 5180 11548 11548v39648c0 6368-5180 11548-11548 11548-6367 0-11548-5180-11548-11548V64814z"/>
        <path class="fsoup3"
              d="M84805 64814c0-2123 1726-3849 3848-3849 2123 0 3850 1726 3850 3849v39648c0 2122-1727 3849-3850 3849-2122 0-3848-1727-3848-3849V64814z"/>
        <path
                d="M54644 53644c0 4460-3616 8076-8078 8076-4460 0-8076-3615-8076-8076s3616-8077 8076-8077c4462 0 8078 3616 8078 8077z"
                fill="#b0ce6f"/>
        <path class="fsoup3"
              d="M48419 81136V69458c0-10630-8617-19247-19247-19247S9925 58828 9925 69458v11678h38494z"/>
        <path class="fsoup4"
              d="M40720 81136V69458c0-6368-5181-11549-11548-11549-6368 0-11548 5181-11548 11549v11678h23096z"/>
        <g id="_1851749765920">
            <path class="fsoup3"
                  d="M33021 81136V69458c0-2123-1726-3850-3849-3850s-3849 1727-3849 3850v11678h7698zM59900 131165c-10630 0-19247-8617-19247-19247V72269c0-10629 8617-19246 19247-19246 10629 0 19246 8617 19246 19246v39648c0 10631-8617 19248-19246 19248z"/>
        </g>
        <path class="fsoup4"
              d="M48351 72269c0-6367 5181-11548 11549-11548 6367 0 11547 5181 11547 11548v39648c0 6368-5180 11549-11547 11549-6368 0-11549-5181-11549-11549V72269z"/>
        <path class="fsoup3"
              d="M56050 72269c0-2122 1727-3849 3850-3849 2122 0 3848 1727 3848 3849v39648c0 2123-1726 3850-3848 3850-2123 0-3850-1727-3850-3850V72269z"/>
        <path
                d="M24034 71972c0 4460-3616 8076-8077 8076-4460 0-8077-3616-8077-8076s3617-8077 8077-8077c4461 0 8077 3617 8077 8077z"
                fill="#ff8150"/>
        <path
                d="M110198 136696c0 3633-2946 6578-6578 6578H50996c-3633 0-6578-2945-6578-6578v-6140c0-3632 2945-6578 6578-6578h52624c3632 0 6578 2946 6578 6578v6140z"
                fill="#759b84"/>
        <path
                d="M59300 133626c-30751 0-55768-25017-55768-55768 0-2139 1734-3872 3872-3872h139807c2139 0 3873 1733 3873 3872 0 30751-25017 55768-55768 55768H59300z"
                fill="#78b591"/>
        <g id="_1851749765216">
            <path class="fsoup9"
                  d="M60277 39666H48295c-5009 0-9084-4365-9084-9731 0-5365 4075-9730 9084-9730h5513c927 0 1677 804 1677 1796 0 993-750 1797-1677 1797h-5513c-3160 0-5730 2753-5730 6137 0 3385 2570 6138 5730 6138h11982c927 0 1678 804 1678 1797 0 992-751 1796-1678 1796zM65915 23798h-6469c-926 0-1677-805-1677-1797s751-1797 1677-1797h6469c3640 0 6601-3172 6601-7071 0-3898-2961-7071-6601-7071h-7304c-926 0-1677-804-1677-1797 0-992 751-1796 1677-1796h7304c5489 0 9955 4784 9955 10664 0 5881-4466 10665-9955 10665z"/>
        </g>
        <g id="_1851749761920">
            <path class="fsoup10"
                  d="M98952 27390h-5771c-5006 0-9080-4118-9080-9180s4074-9180 9080-9180h5013c1002 0 1815 822 1815 1835 0 1014-813 1836-1815 1836h-5013c-3004 0-5449 2471-5449 5509s2445 5509 5449 5509h5771c1003 0 1816 822 1816 1836 0 1013-813 1835-1816 1835z"/>
            <path class="fsoup10"
                  d="M113685 37540c-1003 0-1815-822-1815-1835v-3996c0-2382-1917-4319-4272-4319h-9485c-1003 0-1816-822-1816-1835 0-1014 813-1836 1816-1836h9485c4358 0 7903 3584 7903 7989v3996c0 1014-813 1836-1816 1836z"/>
        </g>
        <path
                d="M13521 109676l127527-925c-5885 10128-13728 17756-26838 21581-10309 3007-25007 3255-36902 3294-12511 42-25685 791-36684-3216-9113-3320-17317-8886-23356-14905-2562-2553-4076-5827-3747-5829z"
                fill="#95d6af"/>
    </g>
</svg>