<svg xmlns="http://www.w3.org/2000/svg" width="210mm" height="297mm" viewBox="0 0 21000 29700" shape-rendering="geometricPrecision" text-rendering="geometricPrecision" image-rendering="optimizeQuality" fill-rule="evenodd" clip-rule="evenodd">
    <defs>
        <style>
            .gray0{fill:var(--btn-s-color)}
            .gray01{fill:var(--body-color)}
            .gray1{fill:var(--body-color)}
            .gray2{fill:var(--btn-s-color)}
            .gray3{fill:var(--btn-border)}
            .gray4{fill:#bdbdbd}
            .gray5{fill:var(--body-back)}
        </style>
    </defs>
    <g id="Слой_x0020_1">
        <path class="gray2" d="M4356.14 17534.08c450.22-450.19 1047.94-698.16 1683.15-698.1 475.8 0 1433.57-773.19 1761.09-1563.82 94.69-228.65 168.43-540.44-18.2-727.08-195.69-195.74-216.16-216.11-216.8-216.77-.79-.77-1.59-1.56-2.38-2.38-618.97-618.94-618.94-1626.1.05-2245.1l1667.7-1667.7c154.94-154.97 406.27-155.02 561.26 0l5051.43 5051.37c154.99 154.97 154.99 406.27 0 561.29l-1667.75 1667.72c-298.93 298.9-697.57 463.55-1122.55 463.55h-.03c-424.92 0-823.6-164.65-1122.94-463.95-1.11-1.08-16.67-16.7-218.73-218.81-79.3-79.27-176.58-116.23-306.18-116.23-778.62 0-1984.72 1235.15-1984.72 1859.15 0 1312.94-1068.2 2381.2-2381.22 2381.25h-.03c-635.24 0-1233.01-247.94-1683.12-698.16-450.22-450.14-698.13-1047.88-698.13-1683.09 0-635.19 247.91-1232.98 698.1-1683.15v.01z" />
        <path class="gray2" d="M12317.72 12938.82l2525.71 2525.69c154.99 154.97 154.99 406.27 0 561.29l-1667.75 1667.72c-298.93 298.9-697.57 463.55-1122.55 463.55h-.03c-424.92 0-823.6-164.65-1122.94-463.95-1.11-1.08-16.67-16.7-218.73-218.81-79.3-79.27-176.58-116.23-306.18-116.23-778.62 0-1984.72 1235.15-1984.72 1859.15 0 1312.94-1068.2 2381.2-2381.22 2381.25h-.03c-635.24 0-1233.01-247.94-1683.09-698.16l7961.53-7961.5z" />
        <path class="gray3" d="M7687.41 10592.54l4554.85-4558.85c363.59-363.59 827.5-524.91 1019.91-332.53 680.97 680.98 1095.69 1226.98 1986.38 1972.61 748.64 626.7 1994.43 1458.83 2431.27 1996.24l1863.42 2292.35c192.42 192.42 80.56 612.75-317.14 1036.08-1058.65 1059.41-2779.96 2778.41-4533.62 4533.61l-1411.53 56.19-5620.3-5628.68c-276.99-265.07-477.75-911.35 26.76-1367.02z"/>
        <path class="gray3" d="M19589.53 12431.07c-56.15 182.18-181.73 385.64-363.49 567.4-1755.81 1755.81-2777.75 2777.78-4533.56 4533.59-268.75 280.21-732.49 498.25-1252.14 172.36-52.59-32.99-105.77-71.56-159.39-116.19l-2806.23-2806.39 6024.95-6130.95c353.11 294.52 382.17 188.75 1059.33 883.56l1896.75 2320.28c246.81 301.92 203.92 258.99 133.95 575.9l-.14.43-.03.01z"/>
        <circle class="gray3" cx="6039.29" cy="19217.22" r="396.87"/>
        <path class="gray1" d="M6039.29 19614.1c-109.62 0-208.84-44.4-280.62-116.23l561.26-561.26c71.81 71.81 116.23 171.03 116.23 280.62 0 219.23-177.69 396.88-396.88 396.88l.01-.01z"/>
        <rect class="gray5" transform="rotate(45 -1584.761 19588.242) scale(1.43622 .89285)" width="499.16" height="4349.77" rx="217.27" ry="217.27"/>
        <rect class="gray5" transform="rotate(45 -3275.898 24074.873) scale(1.43622 .99628)" width="499.16" height="4349.77" rx="217.27" ry="217.27"/>
        <rect class="gray5" transform="rotate(45 -2489.443 22026.032) scale(1.43622 1.06273)" width="499.16" height="4349.77" rx="217.27" ry="217.27"/>
        <rect class="gray5" transform="rotate(45 -4522.396 26911.068) scale(1.43622 1.17785)" width="499.16" height="4349.77" rx="217.27" ry="217.27"/>
    </g>
</svg>